<!DOCTYPE svg PUBLIC "-//W3C//DTD SVG 1.1//EN" "http://www.w3.org/Graphics/SVG/1.1/DTD/svg11.dtd">
<!-- Uploaded to: SVG Repo, www.svgrepo.com, Transformed by: SVG Repo Mixer Tools -->
<svg fill="#caee68" width="256px" height="256px" viewBox="0 0 24 24" xmlns="http://www.w3.org/2000/svg" stroke="#caee68">
<g id="SVGRepo_bgCarrier" stroke-width="0"/>
<g id="SVGRepo_tracerCarrier" stroke-linecap="round" stroke-linejoin="round"/>
<g id="SVGRepo_iconCarrier">
<path fill-rule="evenodd" d="M4.75 1.5a3.25 3.25 0 00-.745 6.414A.758.758 0 004 8v8a.81.81 0 00.005.086A3.251 3.251 0 004.75 22.5a3.25 3.25 0 00.745-6.414A.757.757 0 005.5 16V8a.758.758 0 00-.005-.086A3.251 3.251 0 004.75 1.5zM3 4.75a1.75 1.75 0 113.5 0 1.75 1.75 0 01-3.5 0zm0 14.5a1.75 1.75 0 113.5 0 1.75 1.75 0 01-3.5 0zm13 0a3.25 3.25 0 116.5 0 3.25 3.25 0 01-6.5 0zm3.25-1.75a1.75 1.75 0 100 3.5 1.75 1.75 0 000-3.5z"/>
<path d="M19.25 6a1.75 1.75 0 100-3.5 1.75 1.75 0 000 3.5zM21 11.25a1.75 1.75 0 11-3.5 0 1.75 1.75 0 013.5 0z"/>
</g>
</svg>